<svg width="1440" height="1024" viewBox="0 0 1440 1024" fill="none" xmlns="http://www.w3.org/2000/svg">
<rect width="1440" height="1024" fill="#333333"/>
<path d="M399.76 533.24L371.856 518.264V516.92L399.76 501.88V504.184L374.48 517.624L399.76 530.936V533.24ZM429.913 539H427.993V517.304C427.993 510.84 424.793 509.048 419.993 509.048C415.769 509.048 411.225 511.8 409.049 514.872V539H407.129V496.312H409.049V512.952C411.353 510.136 415.961 507.32 420.249 507.32C426.393 507.32 429.913 510.008 429.913 517.304V539ZM446.574 539.768C442.99 539.768 441.326 537.4 441.326 533.56V509.816H436.206V508.088H441.326V499.64H443.246V508.088H449.518V509.816H443.246V533.56C443.246 536.184 444.27 538.04 446.574 538.04C448.11 538.04 449.454 537.272 450.222 536.376L451.374 537.848C450.158 539 448.878 539.768 446.574 539.768ZM495.589 539H493.669V516.728C493.669 511.928 491.685 509.048 487.013 509.048C483.557 509.048 479.333 511.672 477.413 514.808V539H475.493V516.728C475.493 511.928 473.509 509.048 468.837 509.048C465.381 509.048 461.285 511.736 459.237 514.872V539H457.317V508.088H459.237V512.952C460.517 510.904 464.741 507.32 469.157 507.32C474.021 507.32 476.517 510.328 477.157 513.208C478.885 510.328 483.045 507.32 487.333 507.32C492.965 507.32 495.589 510.584 495.589 516.728V539ZM508.487 539H506.567V496.312H508.487V539ZM533.008 539.768C525.968 539.768 521.936 536.952 519.184 532.6L520.848 531.384C523.6 535.544 527.184 537.848 533.008 537.848C539.536 537.848 544.528 532.92 544.528 526.328C544.528 519.096 539.536 514.68 533.008 514.68C529.04 514.68 525.52 516.024 522.256 519.096L520.528 518.072V496.312H543.824V498.232H522.576V516.856C524.688 514.808 528.4 512.76 533.008 512.76C540.112 512.76 546.576 517.368 546.576 526.328C546.576 534.648 540.112 539.768 533.008 539.768ZM580.51 518.264L552.606 533.24V530.936L577.886 517.624L552.606 504.184V501.88L580.51 516.92V518.264Z" fill="#DDDDDD" fill-opacity="0.1"/>
<path d="M560.84 653.768C556.168 653.768 552.776 652.04 550.024 648.2L551.752 646.664C553.736 649.48 556.488 651.848 560.84 651.848C567.176 651.848 571.08 647.432 571.08 641.16V610.312H573.128V641.16C573.128 649.672 567.432 653.768 560.84 653.768ZM606.142 653H604.222V649.224C601.342 652.36 597.886 653.768 593.534 653.768C588.094 653.768 582.718 650.056 582.718 643.464C582.718 636.872 588.03 633.16 593.534 633.16C597.886 633.16 601.342 634.568 604.222 637.704V630.728C604.222 625.736 600.254 623.048 595.518 623.048C591.486 623.048 588.478 624.456 585.598 627.912L584.126 626.632C587.134 623.112 590.334 621.32 595.518 621.32C601.598 621.32 606.142 624.392 606.142 630.664V653ZM594.046 652.04C598.078 652.04 601.854 650.44 604.222 647.304V639.624C601.854 636.488 598.078 634.888 594.046 634.888C588.414 634.888 584.83 638.664 584.83 643.464C584.83 648.264 588.414 652.04 594.046 652.04ZM627.817 653H625.577L612.329 622.088H614.569L626.729 650.76L638.825 622.088H641.065L627.817 653ZM669.142 653H667.222V649.224C664.342 652.36 660.886 653.768 656.534 653.768C651.094 653.768 645.718 650.056 645.718 643.464C645.718 636.872 651.03 633.16 656.534 633.16C660.886 633.16 664.342 634.568 667.222 637.704V630.728C667.222 625.736 663.254 623.048 658.518 623.048C654.486 623.048 651.478 624.456 648.598 627.912L647.126 626.632C650.134 623.112 653.334 621.32 658.518 621.32C664.598 621.32 669.142 624.392 669.142 630.664V653ZM657.046 652.04C661.078 652.04 664.854 650.44 667.222 647.304V639.624C664.854 636.488 661.078 634.888 657.046 634.888C651.414 634.888 647.83 638.664 647.83 643.464C647.83 648.264 651.414 652.04 657.046 652.04ZM693.441 653.768C686.017 653.768 680.577 650.952 677.057 646.984L680.193 642.952C683.009 646.088 687.617 649.032 693.633 649.032C701.249 649.032 703.681 644.936 703.681 641.672C703.681 630.664 678.401 636.744 678.401 621.512C678.401 614.472 684.673 609.672 693.057 609.672C699.585 609.672 704.641 611.848 708.225 615.624L705.025 619.528C701.825 616.008 697.345 614.408 692.673 614.408C687.553 614.408 683.905 617.16 683.905 621.192C683.905 630.792 709.185 625.288 709.185 641.224C709.185 647.432 704.961 653.768 693.441 653.768ZM730.557 653.768C721.597 653.768 715.965 646.408 715.965 637.512C715.965 628.616 721.597 621.32 730.557 621.32C735.613 621.32 738.493 623.24 741.117 626.504L739.709 627.656C737.213 624.264 734.269 623.048 730.685 623.048C722.749 623.048 718.077 629.448 718.077 637.512C718.077 645.576 722.749 652.04 730.685 652.04C734.269 652.04 737.213 650.76 739.709 647.368L741.117 648.584C738.493 651.848 735.613 653.768 730.557 653.768ZM751.112 653H749.192V622.088H751.112V627.72C753.864 624.072 757.256 621.512 761.736 621.512V623.816C761.16 623.752 760.776 623.752 760.2 623.752C756.936 623.752 752.52 626.952 751.112 629.832V653ZM769.589 616.776C768.629 616.776 767.733 615.944 767.733 614.92C767.733 613.896 768.629 613.064 769.589 613.064C770.613 613.064 771.445 613.896 771.445 614.92C771.445 615.944 770.613 616.776 769.589 616.776ZM770.549 653H768.629V622.088H770.549V653ZM794.623 653.768C790.015 653.768 785.983 651.336 783.487 647.688V664.776H781.567V622.088H783.487V627.272C785.599 624.072 789.759 621.32 794.623 621.32C802.943 621.32 808.447 627.72 808.447 637.512C808.447 647.24 802.943 653.768 794.623 653.768ZM794.623 652.04C802.175 652.04 806.335 645.64 806.335 637.512C806.335 629.384 802.175 623.048 794.623 623.048C789.823 623.048 785.407 625.928 783.487 629.192V645.768C785.407 649.032 789.823 652.04 794.623 652.04ZM823.136 653.768C819.552 653.768 817.888 651.4 817.888 647.56V623.816H812.768V622.088H817.888V613.64H819.808V622.088H826.08V623.816H819.808V647.56C819.808 650.184 820.832 652.04 823.136 652.04C824.672 652.04 826.016 651.272 826.784 650.376L827.936 651.848C826.72 653 825.44 653.768 823.136 653.768Z" fill="#DDDDDD" fill-opacity="0.1"/>
<path d="M697.628 555.768C685.788 555.768 676.316 546.808 676.316 533.688C676.316 520.568 685.788 511.608 697.628 511.608C703.644 511.608 708.7 513.976 712.476 518.328L710.876 519.736C707.868 515.96 702.94 513.528 697.628 513.528C686.94 513.528 678.556 521.656 678.556 533.688C678.556 545.592 686.94 553.848 697.628 553.848C702.94 553.848 707.868 551.416 710.876 547.64L712.54 548.984C708.508 553.528 703.644 555.768 697.628 555.768ZM693.398 603.768C686.742 603.768 681.558 600.888 678.486 596.984L680.15 595.512C682.774 598.712 687.254 601.848 693.398 601.848C703.254 601.848 705.75 596.216 705.75 592.184C705.75 578.104 679.83 585.08 679.83 570.488C679.83 563.576 686.166 559.608 693.206 559.608C699.478 559.608 704.022 561.912 707.03 565.624L705.43 567.096C702.422 563.192 698.134 561.528 693.206 561.528C686.998 561.528 682.07 565.24 682.07 570.488C682.07 582.648 707.99 576.248 707.99 592.184C707.99 596.984 704.918 603.768 693.398 603.768Z" fill="#DDDDDD" fill-opacity="0.1"/>
<path d="M693.128 704.768C686.408 704.768 681.544 701.44 679.304 697.6L681.096 696.576C683.272 700.096 687.304 702.848 693.128 702.848C700.168 702.848 704.712 699.008 704.712 692.672C704.712 685.696 698.888 682.88 692.36 682.88C690.632 682.88 689.416 682.88 688.776 682.944V680.896C689.416 680.96 690.568 680.96 692.36 680.96C698.312 680.96 704.072 678.272 704.072 671.808C704.072 665.92 698.952 662.592 693.128 662.592C688.008 662.592 684.68 664.576 681.48 668.352L679.88 667.072C682.696 663.488 687.24 660.672 693.128 660.672C699.784 660.672 706.12 664.576 706.12 671.808C706.12 678.72 700.36 681.344 697.032 681.92C700.552 682.24 706.76 685.376 706.76 692.672C706.76 699.584 701.832 704.768 693.128 704.768Z" fill="#DDDDDD" fill-opacity="0.1"/>
<path d="M856.632 572H853.844L840.04 552.416H829.16V572H826.984V526.644H842.624C849.968 526.644 856.02 531.2 856.02 539.496C856.02 547.792 849.968 552.416 842.624 552.416L856.632 572ZM842.624 550.376C849.288 550.376 853.64 545.752 853.64 539.496C853.64 533.24 849.288 528.684 842.624 528.684H829.16V550.376H842.624ZM878.516 572.816C868.996 572.816 862.4 565.54 862.4 555.544C862.4 546.024 868.996 538.34 877.836 538.34C887.9 538.34 893.068 546.432 893.068 555.544V556.224H864.712C864.916 564.248 870.152 570.98 878.516 570.98C883.14 570.98 886.88 569.28 889.94 566.016L891.164 567.308C887.832 570.776 884.024 572.816 878.516 572.816ZM890.892 554.388C890.892 548.064 886.744 540.176 877.768 540.176C869.336 540.176 864.916 547.928 864.712 554.388H890.892ZM926.272 572H924.232V567.988C921.172 571.32 917.5 572.816 912.876 572.816C907.096 572.816 901.384 568.872 901.384 561.868C901.384 554.864 907.028 550.92 912.876 550.92C917.5 550.92 921.172 552.416 924.232 555.748V548.336C924.232 543.032 920.016 540.176 914.984 540.176C910.7 540.176 907.504 541.672 904.444 545.344L902.88 543.984C906.076 540.244 909.476 538.34 914.984 538.34C921.444 538.34 926.272 541.604 926.272 548.268V572ZM913.42 570.98C917.704 570.98 921.716 569.28 924.232 565.948V557.788C921.716 554.456 917.704 552.756 913.42 552.756C907.436 552.756 903.628 556.768 903.628 561.868C903.628 566.968 907.436 570.98 913.42 570.98ZM951.682 572.816C942.162 572.816 936.178 564.996 936.178 555.544C936.178 546.092 942.162 538.34 951.682 538.34C957.054 538.34 960.114 540.38 962.902 543.848L961.406 545.072C958.754 541.468 955.626 540.176 951.818 540.176C943.386 540.176 938.422 546.976 938.422 555.544C938.422 564.112 943.386 570.98 951.818 570.98C955.626 570.98 958.754 569.62 961.406 566.016L962.902 567.308C960.114 570.776 957.054 572.816 951.682 572.816ZM977.465 572.816C973.657 572.816 971.889 570.3 971.889 566.22V540.992H966.449V539.156H971.889V530.18H973.929V539.156H980.593V540.992H973.929V566.22C973.929 569.008 975.017 570.98 977.465 570.98C979.097 570.98 980.525 570.164 981.341 569.212L982.565 570.776C981.273 572 979.913 572.816 977.465 572.816ZM1013.28 572.816C1008.45 572.816 1004.57 571.252 1001.44 567.58L1004.37 563.296C1006.34 565.676 1008.99 567.784 1012.94 567.784C1018.51 567.784 1022.05 563.908 1022.05 558.264V526.644H1027.69V558.332C1027.69 568.192 1021.37 572.816 1013.28 572.816ZM1052.96 572.816C1045.07 572.816 1039.29 569.824 1035.55 565.608L1038.88 561.324C1041.88 564.656 1046.77 567.784 1053.16 567.784C1061.26 567.784 1063.84 563.432 1063.84 559.964C1063.84 548.268 1036.98 554.728 1036.98 538.544C1036.98 531.064 1043.64 525.964 1052.55 525.964C1059.49 525.964 1064.86 528.276 1068.67 532.288L1065.27 536.436C1061.87 532.696 1057.11 530.996 1052.14 530.996C1046.7 530.996 1042.83 533.92 1042.83 538.204C1042.83 548.404 1069.69 542.556 1069.69 559.488C1069.69 566.084 1065.2 572.816 1052.96 572.816Z" fill="#DDDDDD" fill-opacity="0.1"/>
<path d="M1100.71 518H1098.92L1073.72 483.56V518H1071.93V480.648H1073.72L1098.92 514.752V480.648H1100.71V518Z" fill="#DDDDDD" fill-opacity="0.1"/>
<path d="M1062.78 518H1039.93V480.648H1062.78V482.328H1041.72V497.952H1062.38V499.632H1041.72V516.32H1062.78V518Z" fill="#DDDDDD" fill-opacity="0.1"/>
<path d="M1033.33 518H1030.98L1016.86 500.192L1002.75 518H1000.4L1015.86 498.848L1001.24 480.648H1003.65L1016.86 497.392L1030.08 480.648H1032.49L1017.87 498.792L1033.33 518Z" fill="#DDDDDD" fill-opacity="0.1"/>
<path d="M984.52 518H982.728V482.328H970.128V480.648H997.176V482.328H984.52V518Z" fill="#DDDDDD" fill-opacity="0.1"/>
<path d="M1053.63 617.672C1043.94 617.672 1040.64 608.208 1040.64 598.352C1040.64 589.28 1043.94 579.088 1053.97 579.088C1058.95 579.088 1061.7 581.16 1063.77 584.128L1062.42 585.304C1060.63 582.728 1058.34 580.768 1053.97 580.768C1045.18 580.768 1042.43 590.344 1042.43 598.912C1042.43 599.584 1042.43 600.256 1042.49 600.928C1044 598.352 1048.48 594.264 1053.86 594.264C1060.58 594.264 1065.67 598.072 1065.67 606.024C1065.67 611.736 1061.47 617.672 1053.63 617.672ZM1053.63 615.992C1060.63 615.992 1063.88 610.448 1063.88 606.024C1063.88 599.248 1059.68 595.944 1053.8 595.944C1049.32 595.944 1044.95 599.024 1042.71 603.224C1043.22 608.768 1046.07 615.992 1053.63 615.992Z" fill="#DDDDDD" fill-opacity="0.1"/>
<path d="M411.88 699.576C408.376 699.576 405.832 698.28 403.768 695.4L405.064 694.248C406.552 696.36 408.616 698.136 411.88 698.136C416.632 698.136 419.56 694.824 419.56 690.12V666.984H421.096V690.12C421.096 696.504 416.824 699.576 411.88 699.576ZM443.649 699.576C434.337 699.576 428.433 692.28 428.433 683.016C428.433 673.752 434.337 666.456 443.649 666.456C452.913 666.456 458.865 673.752 458.865 683.016C458.865 687.96 457.137 692.328 454.161 695.352L457.857 699L456.801 700.104L453.057 696.36C450.561 698.376 447.345 699.576 443.649 699.576ZM443.649 698.136C446.913 698.136 449.745 697.08 451.953 695.304L446.673 689.976L447.777 688.872L453.105 694.248C455.697 691.56 457.185 687.624 457.185 683.016C457.185 674.232 451.857 667.896 443.649 667.896C435.345 667.896 430.113 674.232 430.113 683.016C430.113 691.704 435.345 698.136 443.649 698.136ZM483.185 699H481.745V695.448C479.777 697.656 476.561 699.576 473.345 699.576C468.737 699.576 466.097 697.56 466.097 692.088V675.816H467.537V692.088C467.537 696.936 469.937 698.28 473.537 698.28C476.705 698.28 480.113 696.36 481.745 694.056V675.816H483.185V699ZM501.584 699.576C494.864 699.576 490.208 694.44 490.208 687.384C490.208 680.664 494.864 675.24 501.104 675.24C508.208 675.24 511.856 680.952 511.856 687.384V687.864H491.84C491.984 693.528 495.68 698.28 501.584 698.28C504.848 698.28 507.488 697.08 509.648 694.776L510.512 695.688C508.16 698.136 505.472 699.576 501.584 699.576ZM510.32 686.568C510.32 682.104 507.392 676.536 501.056 676.536C495.104 676.536 491.984 682.008 491.84 686.568H510.32ZM520.318 699H518.878V675.816H520.318V680.04C522.382 677.304 524.926 675.384 528.286 675.384V677.112C527.854 677.064 527.566 677.064 527.134 677.064C524.686 677.064 521.374 679.464 520.318 681.624V699ZM531.728 708.072L532.016 706.728C532.544 706.968 533.456 707.112 534.032 707.112C535.568 707.112 536.624 706.44 537.68 703.944L539.792 699.144L529.856 675.816H531.536L540.656 697.32L549.728 675.816H551.408L539.12 704.472C538.016 706.968 536.336 708.408 534.032 708.408C533.216 708.408 532.304 708.264 531.728 708.072Z" fill="#DDDDDD" fill-opacity="0.1"/>
<path d="M739.62 739H738.468V716.068H730.368V714.988H747.756V716.068H739.62V739ZM760.545 739H759.465V736.876C757.845 738.64 755.901 739.432 753.453 739.432C750.393 739.432 747.369 737.344 747.369 733.636C747.369 729.928 750.357 727.84 753.453 727.84C755.901 727.84 757.845 728.632 759.465 730.396V726.472C759.465 723.664 757.233 722.152 754.569 722.152C752.301 722.152 750.609 722.944 748.989 724.888L748.161 724.168C749.853 722.188 751.653 721.18 754.569 721.18C757.989 721.18 760.545 722.908 760.545 726.436V739ZM753.741 738.46C756.009 738.46 758.133 737.56 759.465 735.796V731.476C758.133 729.712 756.009 728.812 753.741 728.812C750.573 728.812 748.557 730.936 748.557 733.636C748.557 736.336 750.573 738.46 753.741 738.46ZM767.265 718.624C766.725 718.624 766.221 718.156 766.221 717.58C766.221 717.004 766.725 716.536 767.265 716.536C767.841 716.536 768.309 717.004 768.309 717.58C768.309 718.156 767.841 718.624 767.265 718.624ZM767.805 739H766.725V721.612H767.805V739ZM775.082 739H774.002V714.988H775.082V739ZM801.116 739H799.748L793.52 717.148L787.292 739H785.924L779.084 714.988H780.344L786.608 737.272L792.908 714.988H794.132L800.432 737.272L806.696 714.988H807.956L801.116 739ZM812.476 718.624C811.936 718.624 811.432 718.156 811.432 717.58C811.432 717.004 811.936 716.536 812.476 716.536C813.052 716.536 813.52 717.004 813.52 717.58C813.52 718.156 813.052 718.624 812.476 718.624ZM813.016 739H811.936V721.612H813.016V739ZM832.029 739H830.949V726.868C830.949 723.232 829.149 722.152 826.449 722.152C824.073 722.152 821.517 723.7 820.293 725.428V739H819.213V721.612H820.293V724.348C821.589 722.764 824.181 721.18 826.593 721.18C830.049 721.18 832.029 722.764 832.029 726.868V739ZM852.417 739H851.337V736.084C850.149 737.884 847.809 739.432 845.073 739.432C840.393 739.432 837.297 735.832 837.297 730.324C837.297 724.852 840.393 721.18 845.073 721.18C847.665 721.18 849.933 722.548 851.337 724.6V714.988H852.417V739ZM845.073 738.46C847.773 738.46 850.257 736.84 851.337 735.004V725.68C850.257 723.844 847.773 722.152 845.073 722.152C840.825 722.152 838.485 725.752 838.485 730.324C838.485 734.896 840.825 738.46 845.073 738.46ZM869.855 739.432C863.195 739.432 857.867 734.392 857.867 727.012C857.867 719.632 863.195 714.592 869.855 714.592C873.239 714.592 876.083 715.924 878.207 718.372L877.307 719.164C875.615 717.04 872.843 715.672 869.855 715.672C863.843 715.672 859.127 720.244 859.127 727.012C859.127 733.708 863.843 738.352 869.855 738.352C872.843 738.352 875.615 736.984 877.307 734.86L878.243 735.616C875.975 738.172 873.239 739.432 869.855 739.432ZM889.835 739.432C886.091 739.432 883.175 737.812 881.447 735.616L882.383 734.788C883.859 736.588 886.379 738.352 889.835 738.352C895.379 738.352 896.783 735.184 896.783 732.916C896.783 724.996 882.203 728.92 882.203 720.712C882.203 716.824 885.767 714.592 889.727 714.592C893.255 714.592 895.811 715.888 897.503 717.976L896.603 718.804C894.911 716.608 892.499 715.672 889.727 715.672C886.235 715.672 883.463 717.76 883.463 720.712C883.463 727.552 898.043 723.952 898.043 732.916C898.043 735.616 896.315 739.432 889.835 739.432ZM910.542 739.432C906.798 739.432 903.882 737.812 902.154 735.616L903.09 734.788C904.566 736.588 907.086 738.352 910.542 738.352C916.086 738.352 917.49 735.184 917.49 732.916C917.49 724.996 902.91 728.92 902.91 720.712C902.91 716.824 906.474 714.592 910.434 714.592C913.962 714.592 916.518 715.888 918.21 717.976L917.31 718.804C915.618 716.608 913.206 715.672 910.434 715.672C906.942 715.672 904.17 717.76 904.17 720.712C904.17 727.552 918.75 723.952 918.75 732.916C918.75 735.616 917.022 739.432 910.542 739.432Z" fill="#DDDDDD" fill-opacity="0.1"/>
<path d="M538.604 797H531.464V778.324H538.492C541.488 778.324 543.588 780.004 543.588 783.084C543.588 785.436 541.936 787.032 540.284 787.368C542.272 787.676 543.952 789.804 543.952 791.96C543.952 795.152 541.88 797 538.604 797ZM538.492 786.976C541.236 786.976 542.608 785.24 542.608 783.084C542.608 780.956 541.236 779.164 538.492 779.164H532.36V786.976H538.492ZM538.604 796.16C541.348 796.16 542.972 794.536 542.972 791.988C542.972 789.86 541.516 787.816 538.604 787.816H532.36V796.16H538.604ZM553.769 797.336C549.961 797.336 547.469 794.2 547.469 790.224C547.469 786.248 549.961 783.14 553.769 783.14C557.605 783.14 560.069 786.248 560.069 790.224C560.069 794.2 557.605 797.336 553.769 797.336ZM553.769 796.58C557.241 796.58 559.145 793.528 559.145 790.224C559.145 786.948 557.241 783.896 553.769 783.896C550.325 783.896 548.393 786.948 548.393 790.224C548.393 793.528 550.325 796.58 553.769 796.58ZM569.738 797.336C565.93 797.336 563.438 794.2 563.438 790.224C563.438 786.248 565.93 783.14 569.738 783.14C573.574 783.14 576.038 786.248 576.038 790.224C576.038 794.2 573.574 797.336 569.738 797.336ZM569.738 796.58C573.21 796.58 575.114 793.528 575.114 790.224C575.114 786.948 573.21 783.896 569.738 783.896C566.294 783.896 564.362 786.948 564.362 790.224C564.362 793.528 566.294 796.58 569.738 796.58ZM582.599 797.336C581.031 797.336 580.303 796.3 580.303 794.62V784.232H578.063V783.476H580.303V779.78H581.143V783.476H583.887V784.232H581.143V794.62C581.143 795.768 581.591 796.58 582.599 796.58C583.271 796.58 583.859 796.244 584.195 795.852L584.699 796.496C584.167 797 583.607 797.336 582.599 797.336ZM591.079 797.336C588.951 797.336 587.467 796.72 586.123 795.18L586.795 794.564C587.635 795.684 589.091 796.58 591.079 796.58C593.571 796.58 595.083 795.236 595.083 793.444C595.083 789.3 586.403 791.456 586.403 786.724C586.403 784.736 588.083 783.14 590.995 783.14C593.319 783.14 594.775 784.064 595.643 785.184L595.027 785.744C594.243 784.624 592.815 783.896 590.995 783.896C588.643 783.896 587.243 785.128 587.243 786.724C587.243 790.504 595.923 788.32 595.923 793.444C595.923 795.544 594.355 797.336 591.079 797.336ZM602.477 797.336C600.909 797.336 600.181 796.3 600.181 794.62V784.232H597.941V783.476H600.181V779.78H601.021V783.476H603.765V784.232H601.021V794.62C601.021 795.768 601.469 796.58 602.477 796.58C603.149 796.58 603.737 796.244 604.073 795.852L604.577 796.496C604.045 797 603.485 797.336 602.477 797.336ZM608.018 797H607.178V783.476H608.018V785.94C609.222 784.344 610.706 783.224 612.666 783.224V784.232C612.414 784.204 612.246 784.204 611.994 784.204C610.566 784.204 608.634 785.604 608.018 786.864V797ZM625.257 797H624.417V795.348C623.157 796.72 621.645 797.336 619.741 797.336C617.361 797.336 615.009 795.712 615.009 792.828C615.009 789.944 617.333 788.32 619.741 788.32C621.645 788.32 623.157 788.936 624.417 790.308V787.256C624.417 785.072 622.681 783.896 620.609 783.896C618.845 783.896 617.529 784.512 616.269 786.024L615.625 785.464C616.941 783.924 618.341 783.14 620.609 783.14C623.269 783.14 625.257 784.484 625.257 787.228V797ZM619.965 796.58C621.729 796.58 623.381 795.88 624.417 794.508V791.148C623.381 789.776 621.729 789.076 619.965 789.076C617.501 789.076 615.933 790.728 615.933 792.828C615.933 794.928 617.501 796.58 619.965 796.58ZM635.776 797.336C633.76 797.336 631.996 796.272 630.904 794.676V802.152H630.064V783.476H630.904V785.744C631.828 784.344 633.648 783.14 635.776 783.14C639.416 783.14 641.824 785.94 641.824 790.224C641.824 794.48 639.416 797.336 635.776 797.336ZM635.776 796.58C639.08 796.58 640.9 793.78 640.9 790.224C640.9 786.668 639.08 783.896 635.776 783.896C633.676 783.896 631.744 785.156 630.904 786.584V793.836C631.744 795.264 633.676 796.58 635.776 796.58Z" fill="#DDDDDD" fill-opacity="0.1"/>
</svg>
